<?xml version="1.0" encoding="utf-8"?>
<!-- Generator: Adobe Illustrator 27.9.0, SVG Export Plug-In . SVG Version: 6.00 Build 0)  -->
<svg version="1.1" id="Layer_1" xmlns="http://www.w3.org/2000/svg" xmlns:xlink="http://www.w3.org/1999/xlink" x="0px" y="0px"
	 viewBox="0 0 24 24" style="enable-background:new 0 0 24 24;" xml:space="preserve">
<style type="text/css">
	.st0{opacity:0.32;fill:#1877F2;}
	.st1{fill:#1877F2;}
</style>
<g>
	<path class="st0" d="M6.5,6.6c0,3.7,0,7.5,0,11.2c-1.8,0-3.7,0-5.5,0c0-3.8,0-7.5,0-11.3C2.8,6.5,4.6,6.5,6.5,6.6z"/>
	<path class="st0" d="M13.5,6.6c0,3.7,0,7.4,0,11.2c-1.8,0-3.7,0-5.5,0c0-3.8,0-7.5,0-11.3C9.8,6.5,11.6,6.5,13.5,6.6z"/>
	<path class="st1" d="M16.8,18.2C15.9,14.8,15,11.4,14.1,8C14,7.8,14,7.6,14,7.4c0.7,0,1.4-0.3,2.1-0.5c1.1-0.2,2.1-0.7,3.2-0.8
		c0.9,3.5,1.9,7.1,2.8,10.6C20.4,17.3,18.6,17.8,16.8,18.2z"/>
	<path class="st1" d="M13.5,6.6c-1.8,0-3.7,0-5.5,0c0-0.4,0-0.9,0-1.3c1.7,0,3.4,0,5.1,0c0.4,0,0.6-0.1,0.6-0.6c0-0.9-0.1-1.9,0-2.8
		c0.9-0.3,1.9-0.5,2.8-0.8c0.8-0.2,1.5,0.1,1.8,0.9c0.3,0.9,0.5,1.8,0.7,2.8c-1.7,0.4-3.4,0.9-5.1,1.3C13.4,6.1,13.5,6.3,13.5,6.6
		L13.5,6.6z"/>
	<path class="st0" d="M13.6,1.8c-0.1,0.9-0.1,1.9,0,2.8c0,0.4-0.1,0.6-0.6,0.6c-1.7,0-3.4,0-5.1,0c0-0.9,0-1.9,0-2.8
		C7.9,1.5,8.5,1,9.4,1c0.9,0,1.8,0,2.6,0C12.8,0.9,13.1,1.5,13.6,1.8z"/>
	<path class="st0" d="M13.5,19.1c0,0.9,0,1.9,0,2.8c0,0.9-0.5,1.4-1.4,1.4c-0.9,0-1.8,0-2.6,0c-0.9,0-1.5-0.5-1.5-1.4
		c0-0.9,0-1.9,0-2.8C9.8,19.1,11.6,19.1,13.5,19.1z"/>
	<path class="st0" d="M0.9,5.2c0-0.9-0.1-1.9,0-2.8C0.9,1.5,1.5,1,2.4,1C3.3,1,4.2,1,5,1C6,1,6.5,1.5,6.5,2.4c0,0.9,0,1.9,0,2.8
		C4.6,5.2,2.8,5.2,0.9,5.2z"/>
	<path class="st0" d="M6.5,19.1c0,0.9,0,1.9,0,2.8c0,0.9-0.5,1.4-1.5,1.4c-0.9,0-1.7,0-2.6,0c-0.9,0-1.5-0.5-1.5-1.4
		c0-0.9,0-1.9,0-2.8C2.8,19.1,4.6,19.1,6.5,19.1z"/>
	<path class="st1" d="M22.5,18.3c0.2,0.8,0.4,1.6,0.6,2.4c0.2,1-0.1,1.6-1.1,1.9c-0.8,0.2-1.6,0.5-2.5,0.7c-0.7,0.2-1.4-0.1-1.6-0.8
		c-0.3-1-0.6-1.9-0.7-3c0.2,0,0.4-0.1,0.6-0.1C19.4,19.1,20.9,18.5,22.5,18.3z"/>
	<path class="st0" d="M13.5,6.6c0-0.2-0.1-0.5,0.3-0.5c1.7-0.4,3.4-0.9,5.1-1.3c0.1,0.5,0.3,1,0.4,1.5c-1.1,0-2.1,0.5-3.2,0.8
		c-0.7,0.1-1.4,0.5-2.1,0.5C13.6,7.3,13.9,6.6,13.5,6.6z"/>
	<path class="st0" d="M22.5,18.3c-1.6,0.2-3.1,0.8-4.7,1.2c-0.2,0-0.4,0.1-0.6,0.1c-0.3-0.4-0.3-0.9-0.4-1.4
		c1.8-0.3,3.6-0.9,5.3-1.4C22.3,17.3,22.4,17.8,22.5,18.3z"/>
	<path class="st1" d="M0.9,5.2c1.8,0,3.7,0,5.5,0c0,0.5,0,0.9,0,1.4c-1.8,0-3.7,0-5.5,0C0.9,6.1,0.9,5.6,0.9,5.2z"/>
	<path class="st1" d="M6.5,19.1c-1.8,0-3.7,0-5.5,0c0-0.4,0-0.9,0-1.3c1.8,0,3.7,0,5.5,0C6.5,18.2,6.5,18.7,6.5,19.1z"/>
	<path class="st1" d="M13.5,19.1c-1.8,0-3.7,0-5.5,0c0-0.4,0-0.9,0-1.3c1.8,0,3.7,0,5.5,0C13.5,18.2,13.5,18.7,13.5,19.1z"/>
</g>
</svg>
