<?xml version="1.0" encoding="utf-8"?>
<!-- Generator: Adobe Illustrator 27.9.0, SVG Export Plug-In . SVG Version: 6.00 Build 0)  -->
<svg version="1.1" id="Layer_1" xmlns="http://www.w3.org/2000/svg" xmlns:xlink="http://www.w3.org/1999/xlink" x="0px" y="0px"
	 viewBox="0 0 24 24" style="enable-background:new 0 0 24 24;" xml:space="preserve">
<style type="text/css">
	.st0{opacity:0.32;fill:#1877F2;}
	.st1{fill:#1877F2;}
</style>
<g>
	<path class="st0" d="M14.7,21.4c-3.8,0-7.5,0-11.2,0c-1.9,0-3.3-1.6-3.3-3.7c0-3.8,0-7.6,0-11.4C0.2,4,1.8,2.6,4,2.6
		c3.8,0,7.5,0,11.3,0c1.1,0,1.5,0.4,1.5,1.4c0,1.8,0,3.6,0,5.4c0,0.4-0.1,0.5-0.5,0.7c-2.8,1.1-4.2,3.2-4.3,6.2
		c0,0.5-0.2,0.5-0.6,0.5c-2.5,0-5.1,0-7.6,0c-1,0-1.6,0.8-1.1,1.7c0.2,0.5,0.7,0.6,1.2,0.6c2.7,0,5.4,0,8.1,0c0.5,0,0.8,0.1,1,0.6
		C13.4,20.3,14,20.9,14.7,21.4z"/>
	<path class="st1" d="M23.8,16.1c0,3-2.4,5.3-5.3,5.3c-2.9,0-5.3-2.4-5.3-5.3c0-2.9,2.4-5.3,5.3-5.3C21.4,10.8,23.8,13.2,23.8,16.1z
		 M19.4,15.5c-1.2,0-2.2,0-3.2,0c-0.3,0-0.5,0.1-0.6,0.4c-0.1,0.2,0,0.4,0.1,0.6c0.2,0.2,0.4,0.2,0.6,0.2c1,0,2,0,3,0
		c0,0.1,0.1,0.1,0.1,0.2c-0.3,0.3-0.7,0.5-1,0.8c-0.3,0.2-0.3,0.6,0,0.8c0.3,0.3,0.6,0.2,0.9,0c0.7-0.7,1.3-1.3,2-2
		c0.3-0.3,0.3-0.6,0-0.9c-0.7-0.7-1.3-1.3-2-2c-0.3-0.3-0.6-0.3-0.8-0.1c-0.3,0.3-0.3,0.6,0,0.9C18.7,14.8,19,15.1,19.4,15.5z"/>
</g>
</svg>
