<?xml version="1.0" encoding="utf-8"?>
<!-- Generator: Adobe Illustrator 27.9.0, SVG Export Plug-In . SVG Version: 6.00 Build 0)  -->
<svg version="1.1" xmlns="http://www.w3.org/2000/svg" xmlns:xlink="http://www.w3.org/1999/xlink" x="0px" y="0px"
	 viewBox="0 0 500 500" style="enable-background:new 0 0 500 500;" xml:space="preserve">
<style type="text/css">
	.st0{fill:url(#SVGID_1_);}
	.st1{fill:url(#SVGID_00000072995124896141835170000004540793164197643426_);}
	.st2{fill:url(#SVGID_00000111160992439505058950000011368380818833738112_);}
	.st3{fill:url(#SVGID_00000158749311832198515060000010688103849011417736_);}
	.st4{fill:url(#SVGID_00000058585950565693626630000002707615840899796103_);}
	.st5{fill:url(#SVGID_00000143581393114163872630000008070849338796477871_);}
	.st6{fill:url(#SVGID_00000083806431215269120900000002431274982542420363_);}
	.st7{fill:url(#SVGID_00000047059372930226433370000013319170458564341908_);}
</style>
<g id="BACKGROUND">
</g>
<g id="OBJECTS">
	<g>
		<g>
			<linearGradient id="SVGID_1_" gradientUnits="userSpaceOnUse" x1="227.97" y1="299.2287" x2="272.0249" y2="337.5235">
				<stop  offset="0" style="stop-color:#FF992E"/>
				<stop  offset="0.2171" style="stop-color:#F88138"/>
				<stop  offset="0.6728" style="stop-color:#E74453"/>
				<stop  offset="1" style="stop-color:#DA1467"/>
			</linearGradient>
			<path class="st0" d="M250,352.6c-10.8,0-19.5-8.7-19.5-19.5v-29.5c0-10.8,8.7-19.5,19.5-19.5c10.8,0,19.5,8.7,19.5,19.5v29.5
				C269.5,343.9,260.8,352.6,250,352.6z"/>
		</g>
		<g>
			
				<linearGradient id="SVGID_00000070827523130628270060000001079003139027261317_" gradientUnits="userSpaceOnUse" x1="295.881" y1="11.7759" x2="207.2609" y2="603.7576" gradientTransform="matrix(-1 0 0 1 500.0074 0)">
				<stop  offset="0" style="stop-color:#FF992E"/>
				<stop  offset="0.2171" style="stop-color:#F88138"/>
				<stop  offset="0.6728" style="stop-color:#E74453"/>
				<stop  offset="1" style="stop-color:#DA1467"/>
			</linearGradient>
			<path style="fill:url(#SVGID_00000070827523130628270060000001079003139027261317_);" d="M250,352.6c-10.8,0-19.5-8.7-19.5-19.5
				v-29.5c0-10.8,8.7-19.5,19.5-19.5c10.8,0,19.5,8.7,19.5,19.5v29.5C269.5,343.9,260.8,352.6,250,352.6z"/>
		</g>
		<g>
			<g>
				
					<linearGradient id="SVGID_00000113322448347653651750000004458595227466979209_" gradientUnits="userSpaceOnUse" x1="98.3964" y1="402.2325" x2="104.5771" y2="42.8573">
					<stop  offset="0" style="stop-color:#FF992E"/>
					<stop  offset="0.2171" style="stop-color:#F88138"/>
					<stop  offset="0.6728" style="stop-color:#E74453"/>
					<stop  offset="1" style="stop-color:#DA1467"/>
				</linearGradient>
				<path style="fill:url(#SVGID_00000113322448347653651750000004458595227466979209_);" d="M139.2,331.5l-21,6.2
					c-18.2,5.4-36.9,8.8-55.8,10.2V155.6c0,0-22.9,0.2-39,17.2v195.2c0,10.8,8.8,19.5,19.5,19.5c29.2,0,58.3-4.2,86.3-12.5l35-10.4
					c8.3-2.4,14-10.1,14-18.7v-47.6C166.5,326.3,139.2,331.5,139.2,331.5z"/>
			</g>
			
				<linearGradient id="SVGID_00000063620346188016672920000015318932047096712588_" gradientUnits="userSpaceOnUse" x1="18.6432" y1="216.003" x2="314.6344" y2="8.6322">
				<stop  offset="0" style="stop-color:#FF992E"/>
				<stop  offset="0.2171" style="stop-color:#F88138"/>
				<stop  offset="0.6728" style="stop-color:#E74453"/>
				<stop  offset="1" style="stop-color:#DA1467"/>
			</linearGradient>
			<path style="fill:url(#SVGID_00000063620346188016672920000015318932047096712588_);" d="M250,90.7v49.2h0
				c-7.4,0-14.3-4.3-17.5-11c-3.3-6.8-11.7-12.3-21.3-9.4l-81.8,24.2c-21.8,6.5-44.2,10.5-66.8,11.9c0,0-22.9,0.2-39,17.2v-36.1
				c0-10.7,8.8-19.5,19.5-19.5c25.5,0,50.8-3.7,75.3-10.9l81.8-24.2C217.7,76.9,236.1,80.5,250,90.7C250,90.8,250,90.8,250,90.7z"/>
			
				<linearGradient id="SVGID_00000103973096280264346780000011416062737691725956_" gradientUnits="userSpaceOnUse" x1="183.0606" y1="210.3891" x2="184.833" y2="371.0869">
				<stop  offset="0" style="stop-color:#FF992E"/>
				<stop  offset="0.2171" style="stop-color:#F88138"/>
				<stop  offset="0.6728" style="stop-color:#E74453"/>
				<stop  offset="1" style="stop-color:#DA1467"/>
			</linearGradient>
			<path style="fill:url(#SVGID_00000103973096280264346780000011416062737691725956_);" d="M250,168.7V210l0,0l-76.2,38.1
				c2.7,3.4,4.4,7.7,4.4,12.4v38c-11.7,27.8-39,33-39,33V280h-3.5c-10.8,0-19.5-8.8-19.5-19.5v-15.1c0-7.4,4.2-14.1,10.8-17.4
				l114.3-57.2C244,169.4,247,168.7,250,168.7z"/>
		</g>
		<g>
			<g>
				
					<linearGradient id="SVGID_00000149361534864616097060000009766831028952065191_" gradientUnits="userSpaceOnUse" x1="98.8232" y1="401.878" x2="105.0039" y2="42.5024" gradientTransform="matrix(-1 -1.400000e-03 -1.400000e-03 1 500.6125 0.7137)">
					<stop  offset="0" style="stop-color:#073E98"/>
					<stop  offset="0.2452" style="stop-color:#0E56A2"/>
					<stop  offset="0.7602" style="stop-color:#2193BB"/>
					<stop  offset="1" style="stop-color:#2AB2C8"/>
				</linearGradient>
				<path style="fill:url(#SVGID_00000149361534864616097060000009766831028952065191_);" d="M321.6,298.6l-0.1,47.6
					c0,8.6,5.6,16.2,13.9,18.7l34.9,10.4c28,8.3,57.1,12.6,86.3,12.6c10.7,0,19.5-8.7,19.5-19.5l0.3-195.2c-16-17-39-17.3-39-17.3
					l-0.3,192.3c-18.9-1.4-37.5-4.8-55.7-10.3l-21-6.3C360.5,331.7,333.2,326.4,321.6,298.6z"/>
			</g>
			
				<linearGradient id="SVGID_00000018234080011961940270000011617313194624525717_" gradientUnits="userSpaceOnUse" x1="19.0631" y1="215.6455" x2="315.0575" y2="8.2725" gradientTransform="matrix(-1 -1.400000e-03 -1.400000e-03 1 500.6125 0.7137)">
				<stop  offset="0" style="stop-color:#073E98"/>
				<stop  offset="0.2452" style="stop-color:#0E56A2"/>
				<stop  offset="0.7602" style="stop-color:#2193BB"/>
				<stop  offset="1" style="stop-color:#2AB2C8"/>
			</linearGradient>
			<path style="fill:url(#SVGID_00000018234080011961940270000011617313194624525717_);" d="M250,90.7l-0.1,49.2h0
				c7.4,0,14.3-4.2,17.5-11c3.3-6.8,11.8-12.2,21.4-9.4l81.8,24.3c21.8,6.5,44.2,10.5,66.8,12c0,0,22.9,0.3,39,17.3l0.1-36.1
				c0-10.7-8.7-19.5-19.5-19.5c-25.5,0-50.8-3.7-75.2-11L300,82.2C282.3,76.9,264,80.5,250,90.7C250.1,90.8,250,90.8,250,90.7z"/>
			
				<linearGradient id="SVGID_00000011714865639409114890000009046273245862531993_" gradientUnits="userSpaceOnUse" x1="183.4854" y1="210.0272" x2="185.2578" y2="370.7294" gradientTransform="matrix(-1 -1.400000e-03 -1.400000e-03 1 500.6125 0.7137)">
				<stop  offset="0" style="stop-color:#073E98"/>
				<stop  offset="0.2452" style="stop-color:#0E56A2"/>
				<stop  offset="0.7602" style="stop-color:#2193BB"/>
				<stop  offset="1" style="stop-color:#2AB2C8"/>
			</linearGradient>
			<path style="fill:url(#SVGID_00000011714865639409114890000009046273245862531993_);" d="M249.9,168.7l-0.1,41.3l0,0l76.1,38.3
				c-2.7,3.4-4.4,7.7-4.4,12.4l-0.1,38c11.7,27.8,38.9,33.1,38.9,33.1l0.1-51.5l3.5,0c10.8,0,19.5-8.7,19.5-19.5l0-15.1
				c0-7.4-4.2-14.1-10.8-17.5l-114.2-57.4C255.9,169.4,252.9,168.7,249.9,168.7z"/>
		</g>
	</g>
</g>
<g id="TEXTS">
</g>
</svg>
